M48
;DRILL file {Pcbnew (2013-02-27 BZR 3976)-stable} date Tue 05 Mar 2013 10:34:09 AM IST
;FORMAT={-:-/ absolute / metric / decimal}
FMAT,2
METRIC,TZ
T1C0.635
T2C0.899
T3C1.016
T4C1.140
T5C1.199
T6C3.048
%
G90
G05
M71
T1
X121.666Y71.374
X122.451Y99.601
X123.685Y80.345
X123.693Y77.818
X125.931Y81.194
X126.027Y85.725
X127.Y76.708
X127.193Y95.608
X127.762Y72.898
X127.82Y88.577
X127.871Y80.818
X127.927Y85.159
X128.275Y91.834
X128.524Y100.838
X128.681Y96.891
X129.014Y79.672
X129.868Y91.783
X130.609Y89.723
X133.025Y95.608
X133.076Y94.485
X135.534Y75.598
X137.272Y77.63
X137.414Y85.598
X138.328Y83.571
X138.336Y76.591
X138.938Y82.042
X139.634Y75.435
X140.462Y85.598
X140.525Y88.852
X141.023Y75.956
X142.189Y76.916
X142.893Y78.956
X143.556Y80.818
X144.32Y75.629
X145.288Y82.804
X145.43Y78.613
X147.574Y90.17
X148.844Y82.042
X148.844Y87.63
X153.416Y92.456
X153.67Y84.836
X156.464Y76.2
T2
X154.135Y82.255
X154.135Y86.655
T3
X118.135Y82.931
X118.135Y85.725
X118.135Y88.392
X118.135Y91.186
X120.675Y81.534
X120.675Y84.328
X120.675Y87.122
X120.675Y89.789
X120.675Y92.583
T4
X124.46Y89.154
X124.46Y91.694
X124.46Y94.234
X124.46Y96.774
X124.46Y99.314
T5
X133.35Y70.383
X133.35Y99.06
X135.89Y70.383
X135.89Y99.06
X138.43Y70.383
X138.43Y99.06
X140.97Y70.383
X140.97Y99.06
X143.51Y70.383
X143.51Y99.06
X146.05Y70.383
X146.05Y99.06
X148.59Y70.383
X148.59Y99.06
X151.13Y70.383
X151.13Y99.06
T6
X118.135Y74.295
X118.135Y99.695
T0
M30
