G04 (created by PCBNEW (2013-02-27 BZR 3976)-stable) date Tue 05 Mar 2013 10:33:50 AM IST*
%MOIN*%
G04 Gerber Fmt 3.4, Leading zero omitted, Abs format*
%FSLAX34Y34*%
G01*
G70*
G90*
G04 APERTURE LIST*
%ADD10C,2.3622e-06*%
%ADD11C,0.015*%
%ADD12C,0.0909*%
%ADD13C,0.0554*%
%ADD14R,0.0594X0.0515*%
%ADD15R,0.0791X0.0791*%
%ADD16C,0.0791*%
%ADD17C,0.17*%
%ADD18R,0.08X0.08*%
%ADD19C,0.08*%
G04 APERTURE END LIST*
G54D10*
G54D11*
X43307Y-26772D02*
X43307Y-27165D01*
X63386Y-26772D02*
X43307Y-26772D01*
X63386Y-41339D02*
X63386Y-26772D01*
X43307Y-41339D02*
X63386Y-41339D01*
X43307Y-26772D02*
X43307Y-41339D01*
G54D12*
X52500Y-39000D03*
X53500Y-39000D03*
X54500Y-39000D03*
X55500Y-39000D03*
X56500Y-39000D03*
X57500Y-39000D03*
X58500Y-39000D03*
X59500Y-39000D03*
X59500Y-27710D03*
X58500Y-27710D03*
X57500Y-27710D03*
X56500Y-27710D03*
X55500Y-27710D03*
X54500Y-27710D03*
X53500Y-27710D03*
X52500Y-27710D03*
G54D13*
X60683Y-32384D03*
X60683Y-34116D03*
G54D14*
X56939Y-40400D03*
X54183Y-40400D03*
G54D15*
X49000Y-39100D03*
G54D16*
X49000Y-38100D03*
X49000Y-37100D03*
X49000Y-36100D03*
X49000Y-35100D03*
G54D17*
X46510Y-29250D03*
X46510Y-39250D03*
G54D18*
X47510Y-32100D03*
G54D19*
X47510Y-33200D03*
X47510Y-34300D03*
X47510Y-35350D03*
X47510Y-36450D03*
X46510Y-35900D03*
X46510Y-34800D03*
X46510Y-33750D03*
X46510Y-32650D03*
M02*
