G04 (created by PCBNEW (2013-02-27 BZR 3976)-stable) date Tue 05 Mar 2013 10:33:50 AM IST*
%MOIN*%
G04 Gerber Fmt 3.4, Leading zero omitted, Abs format*
%FSLAX34Y34*%
G01*
G70*
G90*
G04 APERTURE LIST*
%ADD10C,2.3622e-06*%
%ADD11C,0.015*%
%ADD12C,0.0909*%
%ADD13R,0.0984X0.0275*%
%ADD14R,0.1106X0.0397*%
%ADD15R,0.1184X0.0987*%
%ADD16C,0.0554*%
%ADD17R,0.0751X0.0338*%
%ADD18R,0.0377X0.0476*%
%ADD19R,0.036X0.07*%
%ADD20R,0.0318X0.0791*%
%ADD21R,0.08X0.1*%
%ADD22R,0.055X0.075*%
%ADD23R,0.075X0.055*%
%ADD24R,0.065X0.045*%
%ADD25R,0.045X0.065*%
%ADD26R,0.0791X0.0791*%
%ADD27C,0.0791*%
%ADD28C,0.17*%
%ADD29R,0.08X0.08*%
%ADD30C,0.08*%
G04 APERTURE END LIST*
G54D10*
G54D11*
X43307Y-26772D02*
X43307Y-27165D01*
X63386Y-26772D02*
X43307Y-26772D01*
X63386Y-41339D02*
X63386Y-26772D01*
X43307Y-41339D02*
X63386Y-41339D01*
X43307Y-26772D02*
X43307Y-41339D01*
G54D12*
X52500Y-39000D03*
X53500Y-39000D03*
X54500Y-39000D03*
X55500Y-39000D03*
X56500Y-39000D03*
X57500Y-39000D03*
X58500Y-39000D03*
X59500Y-39000D03*
X59500Y-27710D03*
X58500Y-27710D03*
X57500Y-27710D03*
X56500Y-27710D03*
X55500Y-27710D03*
X54500Y-27710D03*
X53500Y-27710D03*
X52500Y-27710D03*
G54D13*
X59659Y-32620D03*
G54D14*
X59659Y-32935D03*
X59659Y-33250D03*
X59659Y-33565D03*
X59659Y-33880D03*
G54D15*
X59699Y-31498D03*
X59699Y-35002D03*
X61864Y-31498D03*
X61864Y-35002D03*
G54D16*
X60683Y-32384D03*
X60683Y-34116D03*
G54D17*
X51500Y-29250D03*
X51500Y-29506D03*
X51500Y-29762D03*
X51500Y-30018D03*
X51500Y-30274D03*
X51500Y-30530D03*
X51500Y-30785D03*
X51500Y-31041D03*
X51500Y-31297D03*
X51500Y-31553D03*
X49236Y-31553D03*
X49236Y-31297D03*
X49236Y-31041D03*
X49236Y-30785D03*
X49236Y-30530D03*
X49236Y-30274D03*
X49236Y-30018D03*
X49236Y-29762D03*
X49236Y-29506D03*
X49236Y-29250D03*
G54D18*
X57525Y-32960D03*
X57899Y-32960D03*
X58273Y-32960D03*
X58273Y-33905D03*
X57899Y-33905D03*
X57525Y-33905D03*
G54D19*
X52850Y-31600D03*
X53100Y-31600D03*
X53360Y-31600D03*
X53620Y-31600D03*
X53870Y-31600D03*
X54130Y-31600D03*
X54390Y-31600D03*
X54640Y-31600D03*
X54900Y-31600D03*
X55150Y-31600D03*
X55410Y-31600D03*
X55670Y-31600D03*
X55920Y-31600D03*
X56180Y-31600D03*
X56180Y-34400D03*
X55920Y-34400D03*
X55680Y-34400D03*
X55410Y-34400D03*
X55150Y-34400D03*
X54900Y-34400D03*
X54640Y-34400D03*
X54390Y-34400D03*
X54130Y-34400D03*
X53870Y-34400D03*
X53620Y-34400D03*
X53360Y-34400D03*
X53100Y-34400D03*
X52850Y-34400D03*
G54D20*
X50406Y-37591D03*
X50662Y-37591D03*
X50918Y-37591D03*
X51174Y-37591D03*
X51174Y-38930D03*
X50918Y-38930D03*
X50662Y-38930D03*
X50406Y-38930D03*
X50206Y-34091D03*
X50462Y-34091D03*
X50718Y-34091D03*
X50974Y-34091D03*
X50974Y-35430D03*
X50718Y-35430D03*
X50462Y-35430D03*
X50206Y-35430D03*
G54D21*
X59450Y-36700D03*
X58150Y-36700D03*
G54D22*
X51175Y-28000D03*
X50425Y-28000D03*
G54D23*
X51900Y-36025D03*
X51900Y-36775D03*
G54D22*
X57225Y-30400D03*
X57975Y-30400D03*
X57225Y-31500D03*
X57975Y-31500D03*
G54D23*
X48000Y-28825D03*
X48000Y-29575D03*
G54D22*
X49475Y-32700D03*
X48725Y-32700D03*
X49475Y-28000D03*
X48725Y-28000D03*
X50425Y-32700D03*
X51175Y-32700D03*
G54D24*
X57500Y-34900D03*
X57500Y-35500D03*
G54D25*
X50800Y-36600D03*
X50200Y-36600D03*
G54D24*
X48800Y-34200D03*
X48800Y-33600D03*
X47780Y-38120D03*
X47780Y-37520D03*
G54D25*
X62000Y-36700D03*
X61400Y-36700D03*
G54D26*
X53300Y-29200D03*
G54D27*
X54300Y-29200D03*
X55300Y-29200D03*
X56300Y-29200D03*
X57300Y-29200D03*
G54D26*
X49000Y-39100D03*
G54D27*
X49000Y-38100D03*
X49000Y-37100D03*
X49000Y-36100D03*
X49000Y-35100D03*
G54D28*
X46510Y-29250D03*
X46510Y-39250D03*
G54D29*
X47510Y-32100D03*
G54D30*
X47510Y-33200D03*
X47510Y-34300D03*
X47510Y-35350D03*
X47510Y-36450D03*
X46510Y-35900D03*
X46510Y-34800D03*
X46510Y-33750D03*
X46510Y-32650D03*
M02*
