G04 (created by PCBNEW (2013-02-27 BZR 3976)-stable) date Tue 05 Mar 2013 10:33:50 AM IST*
%MOIN*%
G04 Gerber Fmt 3.4, Leading zero omitted, Abs format*
%FSLAX34Y34*%
G01*
G70*
G90*
G04 APERTURE LIST*
%ADD10C,2.3622e-06*%
%ADD11C,0.015*%
%ADD12C,0.0098*%
%ADD13C,0.012*%
%ADD14C,0.01*%
G04 APERTURE END LIST*
G54D10*
G54D11*
X43307Y-26772D02*
X43307Y-27165D01*
X63386Y-26772D02*
X43307Y-26772D01*
X63386Y-41339D02*
X63386Y-26772D01*
X43307Y-41339D02*
X63386Y-41339D01*
X43307Y-26772D02*
X43307Y-41339D01*
X61909Y-38016D02*
X50059Y-38016D01*
X50020Y-28449D02*
X61909Y-28449D01*
X61909Y-38016D02*
X61909Y-28488D01*
X50059Y-38016D02*
X50020Y-28449D01*
X51500Y-35500D02*
X51500Y-33750D01*
X51500Y-32250D02*
X51500Y-30500D01*
X54000Y-30000D02*
X55750Y-30000D01*
X56250Y-30500D02*
X56250Y-32250D01*
X53500Y-32250D02*
X53500Y-30500D01*
X54000Y-33000D02*
X55750Y-33000D01*
X53500Y-35500D02*
X53500Y-33750D01*
X56250Y-33750D02*
X56250Y-35500D01*
X54000Y-36000D02*
X55750Y-36000D01*
X58000Y-36000D02*
X59750Y-36000D01*
X60250Y-33750D02*
X60250Y-35500D01*
X57500Y-35500D02*
X57500Y-33750D01*
X58000Y-33000D02*
X59750Y-33000D01*
X57500Y-32250D02*
X57500Y-30500D01*
X60250Y-30500D02*
X60250Y-32250D01*
X58000Y-30000D02*
X59750Y-30000D01*
G54D12*
X55758Y-40715D02*
X55758Y-40085D01*
X55758Y-40085D02*
X55443Y-40085D01*
X55443Y-40085D02*
X55443Y-40715D01*
X55443Y-40715D02*
X55758Y-40715D01*
X56427Y-39888D02*
X56427Y-39731D01*
X56427Y-39731D02*
X54695Y-39731D01*
X54695Y-39731D02*
X54695Y-39888D01*
X56427Y-40400D02*
X56427Y-41069D01*
X56427Y-41069D02*
X54695Y-41069D01*
X54695Y-41069D02*
X54695Y-39888D01*
X56427Y-39888D02*
X56427Y-40400D01*
G54D11*
X48400Y-34300D02*
X48400Y-39900D01*
X48400Y-39900D02*
X49600Y-39900D01*
X49600Y-39900D02*
X49600Y-34300D01*
X49600Y-34300D02*
X48400Y-34300D01*
X43270Y-37882D02*
X40947Y-37882D01*
X40947Y-37882D02*
X40947Y-30638D01*
X40947Y-30638D02*
X43309Y-30638D01*
X47915Y-40638D02*
X43309Y-40638D01*
X47915Y-27843D02*
X43348Y-27843D01*
X43309Y-40638D02*
X43309Y-27882D01*
G54D13*
X47910Y-40650D02*
X47910Y-27850D01*
G54D14*
X61119Y-27502D02*
X61119Y-27907D01*
X61142Y-27954D01*
X61166Y-27978D01*
X61214Y-28002D01*
X61309Y-28002D01*
X61357Y-27978D01*
X61380Y-27954D01*
X61404Y-27907D01*
X61404Y-27502D01*
X61880Y-27502D02*
X61642Y-27502D01*
X61619Y-27740D01*
X61642Y-27716D01*
X61690Y-27692D01*
X61809Y-27692D01*
X61857Y-27716D01*
X61880Y-27740D01*
X61904Y-27788D01*
X61904Y-27907D01*
X61880Y-27954D01*
X61857Y-27978D01*
X61809Y-28002D01*
X61690Y-28002D01*
X61642Y-27978D01*
X61619Y-27954D01*
X51633Y-40578D02*
X51704Y-40602D01*
X51823Y-40602D01*
X51871Y-40578D01*
X51895Y-40554D01*
X51919Y-40507D01*
X51919Y-40459D01*
X51895Y-40411D01*
X51871Y-40388D01*
X51823Y-40364D01*
X51728Y-40340D01*
X51680Y-40316D01*
X51657Y-40292D01*
X51633Y-40245D01*
X51633Y-40197D01*
X51657Y-40150D01*
X51680Y-40126D01*
X51728Y-40102D01*
X51847Y-40102D01*
X51919Y-40126D01*
X52085Y-40102D02*
X52204Y-40602D01*
X52300Y-40245D01*
X52395Y-40602D01*
X52514Y-40102D01*
X52966Y-40602D02*
X52680Y-40602D01*
X52823Y-40602D02*
X52823Y-40102D01*
X52776Y-40173D01*
X52728Y-40221D01*
X52680Y-40245D01*
X48402Y-33566D02*
X48759Y-33566D01*
X48830Y-33590D01*
X48878Y-33638D01*
X48902Y-33709D01*
X48902Y-33757D01*
X48450Y-33352D02*
X48426Y-33328D01*
X48402Y-33280D01*
X48402Y-33161D01*
X48426Y-33114D01*
X48450Y-33090D01*
X48497Y-33066D01*
X48545Y-33066D01*
X48616Y-33090D01*
X48902Y-33376D01*
X48902Y-33066D01*
X48302Y-29466D02*
X48659Y-29466D01*
X48730Y-29490D01*
X48778Y-29538D01*
X48802Y-29609D01*
X48802Y-29657D01*
X48302Y-29276D02*
X48302Y-28966D01*
X48492Y-29133D01*
X48492Y-29061D01*
X48516Y-29014D01*
X48540Y-28990D01*
X48588Y-28966D01*
X48707Y-28966D01*
X48754Y-28990D01*
X48778Y-29014D01*
X48802Y-29061D01*
X48802Y-29204D01*
X48778Y-29252D01*
X48754Y-29276D01*
M02*
