G04 (created by PCBNEW (2013-02-27 BZR 3976)-stable) date Tue 05 Mar 2013 10:33:49 AM IST*
%MOIN*%
G04 Gerber Fmt 3.4, Leading zero omitted, Abs format*
%FSLAX34Y34*%
G01*
G70*
G90*
G04 APERTURE LIST*
%ADD10C,2.3622e-06*%
%ADD11C,0.015*%
%ADD12C,0.0709*%
%ADD13R,0.0906X0.0197*%
%ADD14R,0.0984X0.0787*%
%ADD15C,0.0354*%
%ADD16R,0.0551X0.0138*%
%ADD17R,0.0177X0.0276*%
%ADD18R,0.016X0.05*%
%ADD19R,0.0118X0.0591*%
%ADD20R,0.06X0.08*%
%ADD21R,0.035X0.055*%
%ADD22R,0.055X0.035*%
%ADD23R,0.045X0.025*%
%ADD24R,0.025X0.045*%
%ADD25R,0.0591X0.0591*%
%ADD26C,0.0591*%
%ADD27C,0.15*%
%ADD28R,0.06X0.06*%
%ADD29C,0.06*%
%ADD30C,0.035*%
%ADD31C,0.008*%
%ADD32C,0.012*%
%ADD33C,0.02*%
%ADD34C,0.0116*%
%ADD35C,0.025*%
G04 APERTURE END LIST*
G54D10*
G54D11*
X43307Y-26772D02*
X43307Y-27165D01*
X63386Y-26772D02*
X43307Y-26772D01*
X63386Y-41339D02*
X63386Y-26772D01*
X43307Y-41339D02*
X63386Y-41339D01*
X43307Y-26772D02*
X43307Y-41339D01*
G54D12*
X52500Y-39000D03*
X53500Y-39000D03*
X54500Y-39000D03*
X55500Y-39000D03*
X56500Y-39000D03*
X57500Y-39000D03*
X58500Y-39000D03*
X59500Y-39000D03*
X59500Y-27710D03*
X58500Y-27710D03*
X57500Y-27710D03*
X56500Y-27710D03*
X55500Y-27710D03*
X54500Y-27710D03*
X53500Y-27710D03*
X52500Y-27710D03*
G54D13*
X59659Y-32620D03*
X59659Y-32935D03*
X59659Y-33250D03*
X59659Y-33565D03*
X59659Y-33880D03*
G54D14*
X59699Y-31498D03*
X59699Y-35002D03*
X61864Y-31498D03*
X61864Y-35002D03*
G54D15*
X60683Y-32384D03*
X60683Y-34116D03*
G54D16*
X51500Y-29250D03*
X51500Y-29506D03*
X51500Y-29762D03*
X51500Y-30018D03*
X51500Y-30274D03*
X51500Y-30530D03*
X51500Y-30785D03*
X51500Y-31041D03*
X51500Y-31297D03*
X51500Y-31553D03*
X49236Y-31553D03*
X49236Y-31297D03*
X49236Y-31041D03*
X49236Y-30785D03*
X49236Y-30530D03*
X49236Y-30274D03*
X49236Y-30018D03*
X49236Y-29762D03*
X49236Y-29506D03*
X49236Y-29250D03*
G54D17*
X57525Y-32960D03*
X57899Y-32960D03*
X58273Y-32960D03*
X58273Y-33905D03*
X57899Y-33905D03*
X57525Y-33905D03*
G54D18*
X52850Y-31600D03*
X53100Y-31600D03*
X53360Y-31600D03*
X53620Y-31600D03*
X53870Y-31600D03*
X54130Y-31600D03*
X54390Y-31600D03*
X54640Y-31600D03*
X54900Y-31600D03*
X55150Y-31600D03*
X55410Y-31600D03*
X55670Y-31600D03*
X55920Y-31600D03*
X56180Y-31600D03*
X56180Y-34400D03*
X55920Y-34400D03*
X55680Y-34400D03*
X55410Y-34400D03*
X55150Y-34400D03*
X54900Y-34400D03*
X54640Y-34400D03*
X54390Y-34400D03*
X54130Y-34400D03*
X53870Y-34400D03*
X53620Y-34400D03*
X53360Y-34400D03*
X53100Y-34400D03*
X52850Y-34400D03*
G54D19*
X50406Y-37591D03*
X50662Y-37591D03*
X50918Y-37591D03*
X51174Y-37591D03*
X51174Y-38930D03*
X50918Y-38930D03*
X50662Y-38930D03*
X50406Y-38930D03*
X50206Y-34091D03*
X50462Y-34091D03*
X50718Y-34091D03*
X50974Y-34091D03*
X50974Y-35430D03*
X50718Y-35430D03*
X50462Y-35430D03*
X50206Y-35430D03*
G54D20*
X59450Y-36700D03*
X58150Y-36700D03*
G54D21*
X51175Y-28000D03*
X50425Y-28000D03*
G54D22*
X51900Y-36025D03*
X51900Y-36775D03*
G54D21*
X57225Y-30400D03*
X57975Y-30400D03*
X57225Y-31500D03*
X57975Y-31500D03*
G54D22*
X48000Y-28825D03*
X48000Y-29575D03*
G54D21*
X49475Y-32700D03*
X48725Y-32700D03*
X49475Y-28000D03*
X48725Y-28000D03*
X50425Y-32700D03*
X51175Y-32700D03*
G54D23*
X57500Y-34900D03*
X57500Y-35500D03*
G54D24*
X50800Y-36600D03*
X50200Y-36600D03*
G54D23*
X48800Y-34200D03*
X48800Y-33600D03*
X47780Y-38120D03*
X47780Y-37520D03*
G54D24*
X62000Y-36700D03*
X61400Y-36700D03*
G54D25*
X53300Y-29200D03*
G54D26*
X54300Y-29200D03*
X55300Y-29200D03*
X56300Y-29200D03*
X57300Y-29200D03*
G54D25*
X49000Y-39100D03*
G54D26*
X49000Y-38100D03*
X49000Y-37100D03*
X49000Y-36100D03*
X49000Y-35100D03*
G54D27*
X46510Y-29250D03*
X46510Y-39250D03*
G54D28*
X47510Y-32100D03*
G54D29*
X47510Y-33200D03*
X47510Y-34300D03*
X47510Y-35350D03*
X47510Y-36450D03*
X46510Y-35900D03*
X46510Y-34800D03*
X46510Y-33750D03*
X46510Y-32650D03*
G54D30*
X54974Y-29699D03*
X55521Y-29904D03*
X56819Y-29775D03*
X53360Y-29763D03*
X54463Y-30154D03*
X54044Y-30563D03*
X50502Y-36155D03*
X50365Y-33527D03*
X50662Y-38146D03*
X50076Y-37641D03*
X52372Y-37641D03*
X52392Y-37199D03*
X50793Y-31367D03*
X49617Y-33750D03*
X51129Y-36135D03*
X49579Y-31966D03*
X50343Y-31818D03*
X56518Y-31818D03*
X54460Y-32902D03*
X48695Y-31632D03*
X48698Y-30637D03*
X50323Y-34873D03*
X55325Y-34981D03*
X50600Y-39700D03*
X48209Y-39213D03*
X54100Y-33700D03*
X55300Y-33700D03*
X60500Y-33400D03*
X61600Y-30000D03*
X60400Y-36400D03*
X54700Y-32300D03*
X50000Y-30200D03*
X47900Y-28100D03*
X55980Y-30282D03*
X51421Y-35324D03*
X50300Y-28700D03*
X56257Y-31085D03*
X57256Y-30950D03*
X58600Y-32300D03*
X58600Y-34500D03*
X57200Y-32600D03*
X58100Y-35500D03*
G54D31*
X54900Y-31600D02*
X54900Y-31150D01*
X55078Y-30972D02*
X55078Y-29803D01*
X54900Y-31150D02*
X55078Y-30972D01*
X55078Y-29803D02*
X54974Y-29699D01*
X57026Y-36526D02*
X59500Y-39000D01*
X55883Y-36526D02*
X57026Y-36526D01*
X54640Y-35283D02*
X55883Y-36526D01*
X54640Y-34400D02*
X54640Y-35283D01*
X55150Y-31227D02*
X55521Y-30856D01*
X55150Y-31600D02*
X55150Y-31227D01*
X55521Y-30856D02*
X55521Y-29904D01*
X56248Y-36748D02*
X58500Y-39000D01*
X55696Y-36748D02*
X56248Y-36748D01*
X54390Y-35442D02*
X55696Y-36748D01*
X54390Y-34400D02*
X54390Y-35442D01*
X56836Y-32115D02*
X56836Y-31242D01*
X55861Y-33290D02*
X56836Y-32115D01*
X53867Y-33290D02*
X55861Y-33290D01*
X52850Y-34107D02*
X53867Y-33290D01*
X53116Y-38384D02*
X53116Y-35040D01*
X52850Y-34400D02*
X52850Y-34107D01*
X56836Y-31242D02*
X56520Y-30926D01*
X52850Y-34774D02*
X52850Y-34400D01*
X53116Y-35040D02*
X52850Y-34774D01*
X52500Y-39000D02*
X53116Y-38384D01*
X56520Y-29420D02*
X56300Y-29200D01*
X56520Y-30926D02*
X56520Y-29420D01*
X55410Y-31227D02*
X55473Y-31227D01*
X55410Y-31600D02*
X55410Y-31227D01*
X56819Y-29775D02*
X56819Y-28955D01*
X56819Y-28955D02*
X56477Y-28613D01*
X56477Y-28613D02*
X56276Y-28613D01*
X56276Y-28613D02*
X55880Y-29009D01*
X55880Y-29009D02*
X55880Y-29385D01*
X55880Y-29385D02*
X56300Y-29805D01*
X56300Y-29805D02*
X56300Y-30621D01*
X56221Y-30700D02*
X56300Y-30621D01*
X56000Y-30700D02*
X56221Y-30700D01*
X55473Y-31227D02*
X56000Y-30700D01*
X54130Y-35630D02*
X57500Y-39000D01*
X54130Y-34400D02*
X54130Y-35630D01*
X53360Y-31600D02*
X53360Y-29763D01*
X53720Y-27930D02*
X53720Y-30235D01*
X53500Y-27710D02*
X53720Y-27930D01*
X53620Y-31600D02*
X53620Y-31227D01*
X53720Y-30235D02*
X53583Y-30372D01*
X53583Y-30372D02*
X53583Y-31190D01*
X53583Y-31190D02*
X53620Y-31227D01*
X53870Y-36370D02*
X56500Y-39000D01*
X53870Y-34400D02*
X53870Y-36370D01*
X53870Y-30810D02*
X53870Y-31600D01*
X53746Y-30686D02*
X53870Y-30810D01*
X53746Y-30440D02*
X53746Y-30686D01*
X54720Y-29466D02*
X53746Y-30440D01*
X54720Y-27930D02*
X54720Y-29466D01*
X54500Y-27710D02*
X54720Y-27930D01*
X53620Y-34400D02*
X53620Y-37120D01*
X53620Y-37120D02*
X55500Y-39000D01*
X54390Y-30227D02*
X54390Y-31600D01*
X54463Y-30154D02*
X54390Y-30227D01*
X53100Y-34400D02*
X53100Y-34773D01*
X53100Y-34793D02*
X53100Y-34773D01*
X53279Y-34972D02*
X53100Y-34793D01*
X53279Y-38779D02*
X53279Y-34972D01*
X53500Y-39000D02*
X53279Y-38779D01*
X54130Y-30649D02*
X54130Y-31600D01*
X54044Y-30563D02*
X54130Y-30649D01*
X55810Y-27710D02*
X55500Y-27710D01*
X57300Y-29200D02*
X55810Y-27710D01*
X53360Y-34822D02*
X53360Y-34400D01*
X53442Y-34904D02*
X53360Y-34822D01*
X53442Y-37942D02*
X53442Y-34904D01*
X54500Y-39000D02*
X53442Y-37942D01*
X50502Y-36900D02*
X50502Y-36155D01*
X50775Y-37173D02*
X50502Y-36900D01*
X50918Y-37173D02*
X50775Y-37173D01*
X50918Y-37591D02*
X50918Y-37173D01*
X47780Y-38120D02*
X48128Y-38120D01*
X50462Y-34091D02*
X50462Y-33624D01*
X48148Y-38100D02*
X48128Y-38120D01*
X49000Y-38100D02*
X48148Y-38100D01*
X50462Y-33624D02*
X50365Y-33527D01*
X50662Y-37591D02*
X50662Y-38146D01*
X51900Y-36323D02*
X51518Y-36323D01*
X47066Y-36255D02*
X47377Y-35944D01*
X50974Y-35012D02*
X50472Y-34510D01*
X52790Y-37223D02*
X52372Y-37641D01*
X47357Y-37830D02*
X47066Y-37539D01*
X47832Y-38737D02*
X49000Y-38737D01*
X48602Y-36666D02*
X48162Y-37106D01*
X48800Y-34660D02*
X48800Y-34200D01*
X51253Y-35837D02*
X51006Y-35837D01*
X51427Y-36232D02*
X51427Y-36011D01*
X51427Y-36011D02*
X51253Y-35837D01*
X50206Y-34510D02*
X49614Y-35102D01*
X47516Y-35944D02*
X48800Y-34660D01*
X47377Y-35944D02*
X47516Y-35944D01*
X49170Y-36666D02*
X48602Y-36666D01*
X49614Y-36222D02*
X49170Y-36666D01*
X49614Y-35102D02*
X49614Y-36222D01*
X47066Y-37539D02*
X47066Y-36255D01*
X48162Y-37106D02*
X48162Y-37767D01*
X48162Y-37767D02*
X48099Y-37830D01*
X48099Y-37830D02*
X47357Y-37830D01*
X51518Y-36323D02*
X51427Y-36232D01*
X50472Y-34510D02*
X50206Y-34510D01*
X47357Y-37830D02*
X47357Y-38262D01*
X47357Y-38262D02*
X47832Y-38737D01*
X50406Y-37173D02*
X50235Y-37173D01*
X50974Y-35430D02*
X50974Y-35849D01*
X50206Y-34269D02*
X50206Y-34510D01*
X53100Y-33293D02*
X52463Y-33930D01*
X50076Y-37332D02*
X50076Y-37641D01*
X51900Y-36025D02*
X51900Y-36323D01*
X52790Y-35338D02*
X52790Y-37223D01*
X50974Y-35320D02*
X50974Y-35430D01*
X50974Y-35320D02*
X50974Y-35012D01*
X50406Y-37591D02*
X50406Y-37173D01*
X50235Y-37173D02*
X50076Y-37332D01*
X50994Y-35849D02*
X50974Y-35849D01*
X53100Y-31600D02*
X53100Y-33293D01*
X49000Y-39100D02*
X49000Y-38737D01*
X52463Y-33930D02*
X52463Y-35011D01*
X52463Y-35011D02*
X52790Y-35338D01*
X51006Y-35837D02*
X50994Y-35849D01*
X50206Y-34269D02*
X50206Y-34091D01*
X53300Y-29200D02*
X52882Y-29200D01*
X52850Y-31600D02*
X52850Y-31227D01*
X51856Y-34721D02*
X51856Y-34262D01*
X52627Y-35492D02*
X51856Y-34721D01*
X52392Y-37199D02*
X52627Y-36964D01*
X52882Y-31195D02*
X52850Y-31227D01*
X52882Y-29200D02*
X52882Y-31195D01*
X52850Y-33268D02*
X52850Y-31600D01*
X51856Y-34262D02*
X52850Y-33268D01*
X52627Y-36964D02*
X52627Y-35492D01*
X50863Y-31297D02*
X50793Y-31367D01*
X51500Y-31297D02*
X50863Y-31297D01*
X50044Y-33323D02*
X49617Y-33750D01*
X50044Y-31679D02*
X50044Y-33323D01*
X50682Y-31041D02*
X50044Y-31679D01*
X51500Y-31041D02*
X50682Y-31041D01*
X48837Y-30274D02*
X48640Y-30274D01*
X48127Y-32583D02*
X47510Y-33200D01*
X49236Y-30274D02*
X48837Y-30274D01*
X48127Y-30787D02*
X48127Y-32583D01*
X48640Y-30274D02*
X48127Y-30787D01*
X47510Y-33801D02*
X47510Y-34300D01*
X49236Y-30018D02*
X48665Y-30018D01*
X48665Y-30018D02*
X47964Y-30719D01*
X47964Y-30719D02*
X47964Y-32472D01*
X47964Y-32472D02*
X47912Y-32524D01*
X47912Y-32524D02*
X47434Y-32524D01*
X47434Y-32524D02*
X46926Y-33032D01*
X46926Y-33032D02*
X46926Y-33217D01*
X46926Y-33217D02*
X47510Y-33801D01*
X50718Y-35949D02*
X50718Y-35430D01*
X50800Y-36513D02*
X51129Y-36184D01*
X50800Y-36031D02*
X50718Y-35949D01*
X50800Y-36485D02*
X50800Y-36513D01*
X50800Y-36600D02*
X50800Y-36513D01*
X50800Y-36485D02*
X50800Y-36252D01*
X49600Y-29250D02*
X49640Y-29250D01*
X49236Y-29250D02*
X49600Y-29250D01*
X50500Y-30200D02*
X50500Y-30700D01*
X50400Y-30100D02*
X50500Y-30200D01*
X50100Y-29400D02*
X50100Y-29700D01*
X50500Y-30700D02*
X49719Y-31481D01*
X49719Y-31826D02*
X49579Y-31966D01*
X49719Y-31481D02*
X49719Y-31826D01*
X49600Y-29250D02*
X49950Y-29250D01*
X50100Y-29700D02*
X50400Y-30000D01*
X50400Y-30000D02*
X50400Y-30100D01*
X51129Y-36184D02*
X51129Y-36135D01*
X50800Y-36252D02*
X50800Y-36031D01*
X49655Y-31890D02*
X49579Y-31966D01*
X49950Y-29250D02*
X50100Y-29400D01*
X51236Y-31817D02*
X50343Y-31817D01*
X51500Y-31553D02*
X51236Y-31817D01*
X55920Y-31973D02*
X56363Y-31973D01*
X56363Y-31973D02*
X56518Y-31818D01*
X55920Y-31600D02*
X55920Y-31973D01*
X50343Y-31817D02*
X50343Y-31818D01*
X54460Y-32902D02*
X54745Y-32902D01*
X55670Y-31977D02*
X55670Y-31600D01*
X48837Y-31490D02*
X48695Y-31632D01*
X50939Y-39370D02*
X51377Y-39370D01*
X52627Y-34098D02*
X53823Y-32902D01*
X50918Y-39349D02*
X50939Y-39370D01*
X54745Y-32902D02*
X55670Y-31977D01*
X53823Y-32902D02*
X54460Y-32902D01*
X51377Y-39370D02*
X52953Y-37794D01*
X52953Y-35174D02*
X52627Y-34848D01*
X48837Y-31297D02*
X48837Y-31490D01*
X50918Y-38930D02*
X50918Y-39349D01*
X49236Y-31297D02*
X48837Y-31297D01*
X52953Y-37794D02*
X52953Y-35174D01*
X52627Y-34848D02*
X52627Y-34098D01*
X48805Y-30530D02*
X49236Y-30530D01*
X55410Y-34896D02*
X55325Y-34981D01*
X50462Y-35430D02*
X50462Y-35012D01*
X50462Y-35012D02*
X50323Y-34873D01*
X55410Y-34400D02*
X55410Y-34896D01*
X48698Y-30637D02*
X48805Y-30530D01*
X56000Y-35200D02*
X56000Y-35176D01*
X55680Y-34980D02*
X55680Y-34773D01*
X58574Y-34974D02*
X58500Y-34900D01*
X57900Y-35200D02*
X56024Y-35200D01*
X58200Y-34900D02*
X57900Y-35200D01*
X47081Y-34888D02*
X48004Y-34888D01*
X48716Y-31041D02*
X49236Y-31041D01*
X50624Y-39700D02*
X50600Y-39700D01*
X58500Y-34900D02*
X58200Y-34900D01*
X55900Y-35200D02*
X55680Y-34980D01*
X50662Y-38930D02*
X50662Y-39738D01*
X56000Y-35200D02*
X55900Y-35200D01*
X58574Y-35700D02*
X58574Y-34974D01*
X56024Y-35200D02*
X56000Y-35200D01*
X48004Y-34888D02*
X48349Y-34543D01*
X46086Y-37223D02*
X46086Y-35480D01*
X48349Y-34543D02*
X48349Y-31408D01*
X48349Y-31408D02*
X48716Y-31041D01*
X59756Y-39738D02*
X50662Y-39738D01*
X58574Y-35700D02*
X58574Y-36729D01*
X46086Y-35480D02*
X46108Y-35458D01*
X55680Y-34773D02*
X55680Y-34856D01*
X48076Y-39213D02*
X46086Y-37223D01*
X55680Y-34400D02*
X55680Y-34773D01*
X48209Y-39213D02*
X48076Y-39213D01*
X46511Y-35458D02*
X47081Y-34888D01*
X50662Y-39738D02*
X50624Y-39700D01*
X46108Y-35458D02*
X46511Y-35458D01*
X58574Y-35487D02*
X58574Y-35700D01*
X58574Y-36729D02*
X59982Y-38137D01*
X59982Y-38137D02*
X59982Y-39512D01*
X59982Y-39512D02*
X59756Y-39738D01*
G54D32*
X51500Y-29250D02*
X52399Y-29250D01*
X52399Y-29250D02*
X52456Y-29307D01*
G54D33*
X55300Y-33700D02*
X54100Y-33700D01*
X47521Y-28479D02*
X47521Y-29096D01*
X50974Y-34091D02*
X50974Y-34277D01*
G54D31*
X55150Y-33850D02*
X55300Y-33700D01*
G54D33*
X51600Y-37600D02*
X51300Y-37600D01*
X51941Y-27550D02*
X51740Y-27349D01*
X51941Y-28792D02*
X51941Y-27550D01*
X51900Y-36775D02*
X51900Y-36893D01*
G54D31*
X54700Y-32300D02*
X54640Y-32240D01*
G54D33*
X47580Y-36520D02*
X49000Y-35100D01*
X47521Y-29096D02*
X48000Y-29575D01*
X50974Y-34277D02*
X50904Y-34277D01*
X49376Y-27349D02*
X48725Y-28000D01*
X51740Y-27349D02*
X49376Y-27349D01*
X52456Y-29307D02*
X51941Y-28792D01*
X51421Y-35324D02*
X51421Y-35037D01*
X51421Y-35037D02*
X50974Y-34590D01*
X49014Y-33600D02*
X49228Y-33600D01*
X48800Y-33600D02*
X49014Y-33600D01*
X50760Y-34133D02*
X50760Y-34091D01*
G54D31*
X55150Y-34400D02*
X55150Y-33850D01*
G54D34*
X50808Y-34181D02*
X50760Y-34133D01*
X50760Y-34091D02*
X50718Y-34091D01*
G54D32*
X58000Y-32100D02*
X58000Y-31525D01*
X58000Y-31525D02*
X57975Y-31500D01*
G54D33*
X50974Y-34590D02*
X52456Y-33108D01*
X52456Y-33108D02*
X52456Y-29307D01*
G54D34*
X51183Y-37600D02*
X51174Y-37591D01*
G54D33*
X55352Y-29200D02*
X55980Y-29828D01*
X47900Y-28100D02*
X47521Y-28479D01*
G54D32*
X60100Y-36700D02*
X60400Y-36400D01*
G54D31*
X54640Y-32240D02*
X54640Y-31600D01*
G54D33*
X47580Y-36520D02*
X47780Y-36720D01*
X51900Y-36893D02*
X51900Y-37300D01*
G54D35*
X57975Y-30400D02*
X58375Y-30000D01*
G54D33*
X49014Y-33600D02*
X48725Y-33311D01*
X52383Y-35740D02*
X51967Y-35324D01*
X51900Y-36893D02*
X52383Y-36410D01*
X52383Y-36410D02*
X52383Y-35740D01*
X51967Y-35324D02*
X51421Y-35324D01*
G54D32*
X60500Y-33400D02*
X60300Y-33600D01*
X60300Y-33600D02*
X60300Y-33800D01*
G54D35*
X58375Y-30000D02*
X61600Y-30000D01*
G54D32*
X60220Y-33880D02*
X59659Y-33880D01*
G54D33*
X51900Y-37300D02*
X51600Y-37600D01*
G54D31*
X50000Y-30000D02*
X50000Y-30200D01*
G54D32*
X59450Y-36700D02*
X60100Y-36700D01*
G54D31*
X49762Y-29762D02*
X50000Y-30000D01*
G54D32*
X60300Y-33800D02*
X60220Y-33880D01*
X61400Y-36700D02*
X60100Y-36700D01*
X57899Y-32960D02*
X57899Y-32201D01*
G54D33*
X47510Y-36450D02*
X47580Y-36520D01*
X55980Y-29828D02*
X55980Y-30282D01*
X49000Y-35100D02*
X49228Y-34872D01*
G54D31*
X49236Y-29762D02*
X49762Y-29762D01*
G54D33*
X50974Y-34277D02*
X50974Y-34590D01*
X55300Y-29200D02*
X55352Y-29200D01*
X48725Y-33311D02*
X48725Y-32700D01*
G54D32*
X48725Y-28000D02*
X48625Y-28100D01*
G54D33*
X50904Y-34277D02*
X50808Y-34181D01*
X51300Y-37600D02*
X51183Y-37600D01*
G54D31*
X51174Y-38930D02*
X51174Y-37591D01*
G54D35*
X57975Y-31500D02*
X57975Y-30400D01*
G54D32*
X48625Y-28100D02*
X47900Y-28100D01*
X57899Y-32201D02*
X58000Y-32100D01*
X60100Y-36700D02*
X59450Y-36700D01*
G54D33*
X49228Y-34872D02*
X49228Y-33600D01*
X47780Y-36720D02*
X47780Y-37520D01*
G54D31*
X50300Y-28700D02*
X50300Y-28500D01*
X51500Y-30018D02*
X50672Y-30018D01*
X50672Y-30018D02*
X50300Y-29646D01*
X50300Y-29646D02*
X50300Y-28700D01*
X50300Y-28500D02*
X50400Y-28400D01*
X50400Y-28400D02*
X50400Y-28025D01*
X50400Y-28025D02*
X50425Y-28000D01*
X49800Y-27800D02*
X49999Y-27601D01*
X50000Y-27600D02*
X50000Y-27601D01*
X49999Y-27601D02*
X50000Y-27600D01*
X49475Y-28000D02*
X49600Y-28000D01*
X49600Y-28000D02*
X49800Y-27800D01*
X50000Y-27601D02*
X50702Y-27601D01*
X50959Y-29762D02*
X51500Y-29762D01*
X50874Y-29677D02*
X50959Y-29762D01*
X50702Y-27601D02*
X50874Y-27773D01*
X50874Y-27773D02*
X50874Y-29677D01*
X51175Y-28000D02*
X51175Y-28398D01*
X51175Y-28398D02*
X51081Y-28492D01*
X51500Y-29506D02*
X51101Y-29506D01*
X51081Y-29486D02*
X51101Y-29506D01*
X51081Y-28492D02*
X51081Y-29486D01*
X51500Y-30274D02*
X51898Y-30274D01*
X50425Y-32700D02*
X50723Y-32700D01*
X52061Y-30437D02*
X51898Y-30274D01*
X52061Y-32490D02*
X52061Y-30437D01*
X51451Y-33100D02*
X52061Y-32490D01*
X50825Y-33100D02*
X51451Y-33100D01*
X50723Y-32998D02*
X50825Y-33100D01*
X50723Y-32700D02*
X50723Y-32998D01*
X49475Y-32700D02*
X49773Y-32700D01*
X49773Y-32700D02*
X49881Y-32592D01*
X49881Y-32592D02*
X49881Y-31611D01*
X50707Y-30785D02*
X51500Y-30785D01*
X49881Y-31611D02*
X50707Y-30785D01*
X51898Y-31673D02*
X51898Y-30530D01*
X51269Y-32302D02*
X51898Y-31673D01*
X51175Y-32302D02*
X51269Y-32302D01*
X51175Y-32700D02*
X51175Y-32302D01*
X51500Y-30530D02*
X51898Y-30530D01*
X57256Y-31071D02*
X57256Y-30950D01*
X57225Y-31102D02*
X57256Y-31071D01*
X56180Y-31162D02*
X56180Y-31600D01*
X56257Y-31085D02*
X56180Y-31162D01*
X57225Y-31500D02*
X57225Y-31102D01*
X61864Y-35002D02*
X59699Y-35002D01*
X61864Y-31498D02*
X59699Y-31498D01*
X61864Y-35002D02*
X61864Y-31498D01*
X62000Y-35138D02*
X61864Y-35002D01*
X62000Y-36700D02*
X62000Y-35138D01*
X58298Y-32935D02*
X58273Y-32960D01*
X59659Y-32935D02*
X58298Y-32935D01*
X56900Y-34200D02*
X56900Y-34800D01*
X56900Y-34800D02*
X56800Y-34900D01*
X55976Y-34900D02*
X55920Y-34844D01*
X55920Y-34844D02*
X55920Y-34400D01*
X57525Y-33905D02*
X57195Y-33905D01*
X57195Y-33905D02*
X56900Y-34200D01*
X56800Y-34900D02*
X55976Y-34900D01*
G54D32*
X58600Y-34500D02*
X58100Y-34500D01*
X58600Y-34500D02*
X58100Y-34500D01*
X59659Y-32620D02*
X58820Y-32620D01*
X58600Y-32400D02*
X58600Y-32300D01*
G54D31*
X58600Y-34500D02*
X58100Y-34500D01*
G54D32*
X58820Y-32620D02*
X58600Y-32400D01*
G54D31*
X58100Y-34500D02*
X57899Y-34299D01*
G54D32*
X57899Y-34299D02*
X57899Y-33905D01*
X58100Y-34500D02*
X57700Y-34500D01*
G54D31*
X57500Y-34700D02*
X57700Y-34500D01*
G54D32*
X58100Y-34500D02*
X57899Y-34299D01*
X57700Y-34500D02*
X57500Y-34700D01*
G54D31*
X57500Y-34900D02*
X57500Y-34700D01*
G54D32*
X57500Y-34700D02*
X57500Y-34900D01*
G54D31*
X57899Y-34299D02*
X57899Y-33905D01*
X58273Y-33727D02*
X58273Y-33905D01*
X58750Y-33250D02*
X58273Y-33727D01*
X59659Y-33250D02*
X58750Y-33250D01*
X56840Y-32960D02*
X57525Y-32960D01*
X56180Y-33620D02*
X56840Y-32960D01*
X56180Y-34400D02*
X56180Y-33620D01*
X57574Y-32372D02*
X57328Y-32372D01*
X57328Y-32372D02*
X57100Y-32600D01*
X57100Y-32600D02*
X57200Y-32600D01*
G54D32*
X49027Y-29506D02*
X48817Y-29506D01*
X57574Y-32372D02*
X57574Y-30586D01*
X50184Y-35891D02*
X50184Y-36584D01*
X58100Y-35500D02*
X57500Y-35500D01*
X49599Y-39369D02*
X49599Y-36933D01*
X54001Y-27417D02*
X53669Y-27085D01*
X48760Y-29360D02*
X48400Y-29000D01*
X48760Y-29506D02*
X48760Y-29360D01*
X49599Y-36933D02*
X49932Y-36600D01*
X45616Y-28293D02*
X45616Y-29937D01*
X58150Y-36700D02*
X57800Y-36700D01*
X57225Y-30075D02*
X57500Y-29800D01*
X57500Y-29800D02*
X57700Y-29800D01*
X49599Y-39369D02*
X50406Y-39369D01*
X50200Y-36600D02*
X49932Y-36600D01*
X48052Y-30214D02*
X48760Y-29506D01*
X45893Y-30214D02*
X48052Y-30214D01*
X45616Y-29937D02*
X45893Y-30214D01*
X50184Y-36584D02*
X50200Y-36600D01*
X48760Y-29506D02*
X48817Y-29506D01*
X50206Y-35869D02*
X50184Y-35891D01*
X57225Y-30237D02*
X57574Y-30586D01*
X46824Y-27085D02*
X45616Y-28293D01*
X53669Y-27085D02*
X46824Y-27085D01*
X49429Y-39539D02*
X49599Y-39369D01*
X48085Y-39539D02*
X49429Y-39539D01*
X45893Y-37347D02*
X48085Y-39539D01*
X57754Y-29746D02*
X57754Y-28756D01*
X48075Y-28900D02*
X48400Y-28900D01*
X57500Y-36157D02*
X55795Y-36157D01*
X48000Y-28825D02*
X48075Y-28900D01*
X57800Y-36700D02*
X57500Y-36400D01*
G54D31*
X57500Y-36400D02*
X57500Y-36157D01*
X57500Y-36157D02*
X57500Y-35500D01*
G54D32*
X57500Y-36400D02*
X57500Y-36157D01*
X57500Y-36157D02*
X57500Y-35500D01*
X54900Y-35262D02*
X54900Y-34400D01*
X55795Y-36157D02*
X54900Y-35262D01*
X48400Y-28900D02*
X48400Y-29000D01*
G54D31*
X57800Y-36700D02*
X57500Y-36400D01*
G54D32*
X45893Y-30214D02*
X45893Y-37347D01*
X57754Y-28756D02*
X57001Y-28003D01*
X57001Y-28003D02*
X57001Y-27240D01*
X50206Y-35430D02*
X50206Y-35869D01*
X57225Y-30400D02*
X57225Y-30237D01*
X57700Y-29800D02*
X57754Y-29746D01*
X54001Y-28901D02*
X54300Y-29200D01*
X57225Y-30237D02*
X57225Y-30075D01*
X49027Y-29506D02*
X49236Y-29506D01*
X50406Y-38930D02*
X50406Y-39369D01*
X54001Y-27417D02*
X54001Y-28901D01*
X54394Y-27024D02*
X54001Y-27417D01*
X56785Y-27024D02*
X54394Y-27024D01*
X57001Y-27240D02*
X56785Y-27024D01*
M02*
